<svg id="图层_1" data-name="图层 1" xmlns="http://www.w3.org/2000/svg" xmlns:xlink="http://www.w3.org/1999/xlink" viewBox="0 0 16 16"><defs><style>.cls-1{fill:none;}.cls-2{clip-path:url(#clip-path);}.cls-3{fill:url(#未命名的渐变_3);}</style><clipPath id="clip-path"><rect class="cls-1" x="0.5" y="0.5" width="15" height="15"/></clipPath><linearGradient id="未命名的渐变_3" x1="8" y1="2.5" x2="8" y2="13.5" gradientUnits="userSpaceOnUse"><stop offset="0" stop-color="#f0eeee"/><stop offset="1" stop-color="#dee0e1"/></linearGradient></defs><title>关闭</title><g class="cls-2"><path class="cls-3" d="M13.35,12.64a.5.5,0,0,1,0,.71.5.5,0,0,1-.35.15.51.51,0,0,1-.36-.15L8,8.71,3.35,13.35A.5.5,0,0,1,3,13.5a.51.51,0,0,1-.36-.15.51.51,0,0,1,0-.71L7.29,8,2.64,3.35a.5.5,0,0,1,.71-.71L8,7.29l4.64-4.65a.51.51,0,0,1,.71,0,.5.5,0,0,1,0,.71L8.71,8Z"/></g></svg>