<svg xmlns="http://www.w3.org/2000/svg" xmlns:xlink="http://www.w3.org/1999/xlink" viewBox="0 0 11.4 11.4"><defs><style>.cls-1{fill:none;}.cls-2{opacity:0.8;}.cls-3{clip-path:url(#clip-path);}.cls-4{fill:#7a9acc;}</style><clipPath id="clip-path" transform="translate(-0.3 -0.3)"><rect class="cls-1" width="12" height="12"/></clipPath></defs><title>icom69</title><g id="图层_2" data-name="图层 2"><g id="图层_1-2" data-name="图层 1"><g class="cls-2"><g class="cls-3"><path class="cls-4" d="M6,9.68H2.59a.27.27,0,0,1-.26-.27V5.64a.31.31,0,0,0-.3-.3.3.3,0,0,0-.3.3V9.41a.87.87,0,0,0,.86.87H6a.3.3,0,1,0,0-.6Zm3.42-8H6a.31.31,0,0,0-.3.3.3.3,0,0,0,.3.3H9.42a.27.27,0,0,1,.26.27V5.64a.3.3,0,0,0,.3.3.29.29,0,0,0,.3-.3v-3A.87.87,0,0,0,9.42,1.72Zm0,0H6a.31.31,0,0,0-.3.3.3.3,0,0,0,.3.3H9.42a.27.27,0,0,1,.26.27V5.64a.3.3,0,0,0,.3.3.29.29,0,0,0,.3-.3v-3A.87.87,0,0,0,9.42,1.72ZM6,9.68H2.59a.27.27,0,0,1-.26-.27V5.64a.31.31,0,0,0-.3-.3.3.3,0,0,0-.3.3V9.41a.87.87,0,0,0,.86.87H6a.3.3,0,1,0,0-.6ZM10.2.3H1.8A1.5,1.5,0,0,0,.3,1.8v8.4a1.5,1.5,0,0,0,1.5,1.5h8.4a1.5,1.5,0,0,0,1.5-1.5V1.8A1.5,1.5,0,0,0,10.2.3Zm.9,9.9a.9.9,0,0,1-.9.9H1.8a.9.9,0,0,1-.9-.9V1.8A.9.9,0,0,1,1.8.9h8.4a.9.9,0,0,1,.9.9ZM9.42,1.72H6a.31.31,0,0,0-.3.3.3.3,0,0,0,.3.3H9.42a.27.27,0,0,1,.26.27V5.64a.3.3,0,0,0,.3.3.29.29,0,0,0,.3-.3v-3A.87.87,0,0,0,9.42,1.72ZM6,9.68H2.59a.27.27,0,0,1-.26-.27V5.64a.31.31,0,0,0-.3-.3.3.3,0,0,0-.3.3V9.41a.87.87,0,0,0,.86.87H6a.3.3,0,1,0,0-.6Z" transform="translate(-0.3 -0.3)"/></g></g></g></g></svg>