<svg xmlns="http://www.w3.org/2000/svg" xmlns:xlink="http://www.w3.org/1999/xlink" viewBox="0 0 15 15"><defs><style>.cls-1{fill:none;}.cls-2{clip-path:url(#clip-path);}.cls-3{fill:#7a9acc;}</style><clipPath id="clip-path" transform="translate(-0.5 -0.5)"><rect class="cls-1" width="16" height="16"/></clipPath></defs><title>icon60</title><g id="图层_2" data-name="图层 2"><g id="图层_1-2" data-name="图层 1"><g class="cls-2"><path class="cls-3" d="M15.36,7.66a.48.48,0,0,1,0,.68l-2.55,2.55a.36.36,0,0,1-.26.11.38.38,0,0,1-.25-.11.35.35,0,0,1,0-.5l2-2h-6v6l2-2a.35.35,0,0,1,.5,0,.36.36,0,0,1,0,.51L8.34,15.36a.48.48,0,0,1-.68,0L5.11,12.81a.36.36,0,1,1,.51-.51l2,2v-6h-6l2,2a.35.35,0,0,1,0,.5.36.36,0,0,1-.25.11.34.34,0,0,1-.25-.11L.64,8.34a.48.48,0,0,1,0-.68L3.2,5.11a.35.35,0,0,1,.5,0,.36.36,0,0,1,0,.51l-2,2h6v-6l-2,2a.36.36,0,0,1-.51,0,.35.35,0,0,1,0-.5L7.66.64a.48.48,0,0,1,.68,0L10.89,3.2a.35.35,0,0,1,0,.5.36.36,0,0,1-.25.11.34.34,0,0,1-.25-.11l-2-2v6h6l-2-2a.36.36,0,1,1,.51-.51Z" transform="translate(-0.5 -0.5)"/></g></g></g></svg>