<svg xmlns="http://www.w3.org/2000/svg" xmlns:xlink="http://www.w3.org/1999/xlink" viewBox="0 0 15 14.25"><defs><style>.cls-1{fill:none;}.cls-2{clip-path:url(#clip-path);}.cls-3{fill:#7a9acc;}</style><clipPath id="clip-path" transform="translate(0 -0.37)"><rect class="cls-1" width="15" height="15"/></clipPath></defs><title>icon79</title><g id="图层_2" data-name="图层 2"><g id="图层_1-2" data-name="图层 1"><g class="cls-2"><path class="cls-3" d="M13.13,2.63H7.43a.34.34,0,0,1-.26-.12L5.57.92A1.86,1.86,0,0,0,4.25.37H1.88A1.88,1.88,0,0,0,0,2.25v10.5a1.88,1.88,0,0,0,1.88,1.88H13.13A1.89,1.89,0,0,0,15,12.75V4.5A1.88,1.88,0,0,0,13.13,2.63ZM.75,2.25A1.13,1.13,0,0,1,1.88,1.12H4.25a1.2,1.2,0,0,1,.8.33l1.59,1.6a1.16,1.16,0,0,0,.79.33h5.7A1.12,1.12,0,0,1,14.25,4.5v.76H.75Zm13.5,10.5a1.13,1.13,0,0,1-1.12,1.13H1.88A1.13,1.13,0,0,1,.75,12.75V6h13.5Z" transform="translate(0 -0.37)"/></g></g></g></svg>