<svg xmlns="http://www.w3.org/2000/svg" xmlns:xlink="http://www.w3.org/1999/xlink" viewBox="0 0 15 15"><defs><style>.cls-1{fill:none;}.cls-2{clip-path:url(#clip-path);}.cls-3{fill:#7a9acc;}</style><clipPath id="clip-path" transform="translate(0)"><rect class="cls-1" width="15" height="15"/></clipPath></defs><title>icon75</title><g id="图层_2" data-name="图层 2"><g id="图层_1-2" data-name="图层 1"><g class="cls-2"><path class="cls-3" d="M14.88,14.25,11,10.41a6.18,6.18,0,0,0,1.56-4.12,6.29,6.29,0,1,0-6.3,6.29A6.22,6.22,0,0,0,10.4,11l3.86,3.84a.36.36,0,0,0,.3.13.42.42,0,0,0,.32-.13A.46.46,0,0,0,14.88,14.25ZM2.46,10.12a5.41,5.41,0,1,1,7.65,0A5.43,5.43,0,0,1,2.46,10.12Z" transform="translate(0)"/></g></g></g></svg>