<svg xmlns="http://www.w3.org/2000/svg" xmlns:xlink="http://www.w3.org/1999/xlink" viewBox="0 0 24.29 30"><defs><style>.cls-1{fill:none;}.cls-2{clip-path:url(#clip-path);}.cls-3{fill:url(#未命名的渐变_125);}</style><clipPath id="clip-path" transform="translate(-3.36 -0.5)"><rect class="cls-1" width="31" height="31"/></clipPath><linearGradient id="未命名的渐变_125" x1="15.5" y1="0.5" x2="15.5" y2="30.5" gradientUnits="userSpaceOnUse"><stop offset="0" stop-color="#b3ebff"/><stop offset="1" stop-color="#85bcff"/></linearGradient></defs><title>icon58_h</title><g id="图层_2" data-name="图层 2"><g id="图层_1-2" data-name="图层 1"><g class="cls-2"><path class="cls-3" d="M15.5,30.5a.71.71,0,0,1-.71-.71V1.21a.71.71,0,0,1,1.42,0V29.79A.71.71,0,0,1,15.5,30.5ZM5.86,19.69l4.76-2.75a1.66,1.66,0,0,0,0-2.88L5.86,11.31a1.67,1.67,0,0,0-2.5,1.44v5.5a1.65,1.65,0,0,0,.83,1.44,1.63,1.63,0,0,0,1.67,0Zm-.72-7.15L9.9,15.29h0a.24.24,0,0,1,0,.42L5.14,18.46a.23.23,0,0,1-.35-.21v-5.5a.25.25,0,0,1,.11-.21.35.35,0,0,1,.12,0Zm21.67,7.15a1.65,1.65,0,0,0,.83-1.44v-5.5a1.67,1.67,0,0,0-2.5-1.44l-4.76,2.75a1.66,1.66,0,0,0,0,2.88l4.76,2.75a1.63,1.63,0,0,0,1.67,0Zm-.71-7.15a.25.25,0,0,1,.11.21v5.5a.23.23,0,0,1-.35.21L21.1,15.71a.24.24,0,0,1,0-.42l4.76-2.75.12,0A.35.35,0,0,1,26.1,12.54Zm-5.36,2.14h0Z" transform="translate(-3.36 -0.5)"/></g></g></g></svg>