<svg xmlns="http://www.w3.org/2000/svg" xmlns:xlink="http://www.w3.org/1999/xlink" viewBox="0 0 30 24.29"><defs><style>.cls-1{fill:none;}.cls-2{clip-path:url(#clip-path);}.cls-3{fill:url(#未命名的渐变_125);}</style><clipPath id="clip-path" transform="translate(-0.5 -3.36)"><rect class="cls-1" width="31" height="31"/></clipPath><linearGradient id="未命名的渐变_125" x1="15.5" y1="3.36" x2="15.5" y2="27.64" gradientUnits="userSpaceOnUse"><stop offset="0" stop-color="#b3ebff"/><stop offset="1" stop-color="#85bcff"/></linearGradient></defs><title>icon59_h</title><g id="图层_2" data-name="图层 2"><g id="图层_1-2" data-name="图层 1"><g class="cls-2"><path class="cls-3" d="M29.79,16.21H1.21a.71.71,0,0,1,0-1.42H29.79a.71.71,0,0,1,0,1.42Zm-10.1,10.6a1.66,1.66,0,0,0,0-1.67l-2.75-4.76a1.65,1.65,0,0,0-1.44-.83h0a1.65,1.65,0,0,0-1.44.83h0l-2.75,4.76a1.67,1.67,0,0,0,1.44,2.5h5.5A1.65,1.65,0,0,0,19.69,26.81Zm-4-5.71,2.75,4.76a.23.23,0,0,1-.21.35h-5.5a.23.23,0,0,1-.21-.35l2.75-4.76h0A.25.25,0,0,1,15.5,21,.23.23,0,0,1,15.71,21.1Zm-1-.36Zm2.26-10.12,2.75-4.76a1.67,1.67,0,0,0-1.44-2.5h-5.5a1.67,1.67,0,0,0-1.44,2.5l2.75,4.76a1.65,1.65,0,0,0,1.44.83h0A1.65,1.65,0,0,0,16.94,10.62Zm1.31-5.83a.23.23,0,0,1,.21.35L15.71,9.9a.23.23,0,0,1-.21.12.25.25,0,0,1-.21-.12L12.54,5.14a.23.23,0,0,1,.21-.35Z" transform="translate(-0.5 -3.36)"/></g></g></g></svg>