<svg xmlns="http://www.w3.org/2000/svg" xmlns:xlink="http://www.w3.org/1999/xlink" viewBox="0 0 11.41 10"><defs><style>.cls-1{fill:url(#未命名的渐变_30);}</style><linearGradient id="未命名的渐变_30" x1="5.71" y1="10" x2="5.71" gradientUnits="userSpaceOnUse"><stop offset="0" stop-color="#fff"/><stop offset="1" stop-color="#ebf4ff"/></linearGradient></defs><title>icon70</title><g id="图层_2" data-name="图层 2"><g id="图层_1-2" data-name="图层 1"><path class="cls-1" d="M6.36.46V9.54a.45.45,0,0,1-.72.37L2.73,7.73H.91A.91.91,0,0,1,0,6.82V3.18a.91.91,0,0,1,.91-.91H2.73L5.64.09A.45.45,0,0,1,6.36.46ZM9.8,8.76a5.29,5.29,0,0,0,.09-7.51.46.46,0,0,0-.64,0,.47.47,0,0,0,0,.65A4.35,4.35,0,0,1,9.17,8.1a.46.46,0,0,0,0,.65.45.45,0,0,0,.32.14A.48.48,0,0,0,9.8,8.76ZM8.49,7.49a3.45,3.45,0,0,0,.1-5A.45.45,0,1,0,8,3.16,2.57,2.57,0,0,1,8.69,5a2.53,2.53,0,0,1-.82,1.87.46.46,0,0,0,0,.64.44.44,0,0,0,.33.15A.48.48,0,0,0,8.49,7.49Z"/></g></g></svg>