<svg xmlns="http://www.w3.org/2000/svg" xmlns:xlink="http://www.w3.org/1999/xlink" viewBox="0 0 30 27.47"><defs><style>.cls-1{fill:none;}.cls-2{opacity:0.8;}.cls-3{clip-path:url(#clip-path);}.cls-4{fill:#7a9acc;}</style><clipPath id="clip-path" transform="translate(-0.5 -1.76)"><rect class="cls-1" width="31" height="31"/></clipPath></defs><title>icon56</title><g id="图层_2" data-name="图层 2"><g id="图层_1-2" data-name="图层 1"><g class="cls-2"><g class="cls-3"><path class="cls-4" d="M21.54,12a2.26,2.26,0,0,0-3.73,0,5.1,5.1,0,0,0-.66,2.8,5.1,5.1,0,0,0,.66,2.8,2.28,2.28,0,0,0,3.73,0,5,5,0,0,0,.66-2.8A5,5,0,0,0,21.54,12Zm-.7,5a1.25,1.25,0,0,1-1.17.73,1.21,1.21,0,0,1-1.15-.73,4.88,4.88,0,0,1-.39-2.21,4.93,4.93,0,0,1,.39-2.22,1.21,1.21,0,0,1,1.15-.73,1.25,1.25,0,0,1,1.17.73,5,5,0,0,1,.38,2.22A4.9,4.9,0,0,1,20.84,17.05ZM15.68,11.9a2.14,2.14,0,0,0-1.82-.84,2.48,2.48,0,0,0-1.8.66,2.41,2.41,0,0,0-.68,1.77A2.46,2.46,0,0,0,12,15.26a2.23,2.23,0,0,0,3.35-.16,5.4,5.4,0,0,1-.43,1.81,1.39,1.39,0,0,1-1.27.93,1.25,1.25,0,0,1-.9-.32,1.23,1.23,0,0,1-.39-.87h-.89a2,2,0,0,0,.62,1.44,2.25,2.25,0,0,0,1.56.52,2.18,2.18,0,0,0,2-1.12,6.15,6.15,0,0,0,.7-3.2A3.86,3.86,0,0,0,15.68,11.9Zm-.83,2.75a1.42,1.42,0,0,1-2.09,0,1.65,1.65,0,0,1-.4-1.16,1.69,1.69,0,0,1,.4-1.16,1.46,1.46,0,0,1,2.09,0,1.69,1.69,0,0,1,.4,1.16A1.65,1.65,0,0,1,14.85,14.65Zm15.65.85A13.76,13.76,0,0,1,16.76,29.24a.66.66,0,0,1-.65-.66.66.66,0,0,1,.65-.65A12.43,12.43,0,1,0,4.48,13.65l2.87-2.36.57.7L3.68,15.5l-.32-.45-.28-.4L.5,11l.75-.53,2,2.77A13.74,13.74,0,0,1,30.5,15.5Z" transform="translate(-0.5 -1.76)"/></g></g></g></g></svg>