<svg xmlns="http://www.w3.org/2000/svg" xmlns:xlink="http://www.w3.org/1999/xlink" viewBox="0 0 30 27.47"><defs><style>.cls-1{fill:none;}.cls-2{opacity:0.8;}.cls-3{clip-path:url(#clip-path);}.cls-4{fill:#7a9acc;}</style><clipPath id="clip-path" transform="translate(-0.5 -1.76)"><rect class="cls-1" width="31" height="31"/></clipPath></defs><title>icon57</title><g id="图层_2" data-name="图层 2"><g id="图层_1-2" data-name="图层 1"><g class="cls-2"><g class="cls-3"><path class="cls-4" d="M30.5,11l-2.58,3.64-.28.4-.32.45L23.08,12l.58-.7,2.86,2.36A12.42,12.42,0,1,0,14.24,27.93a.65.65,0,0,1,.65.65.66.66,0,0,1-.65.66,13.74,13.74,0,1,1,13.55-16l2-2.77ZM13.1,17.49a6.05,6.05,0,0,0,.7-3.2,3.93,3.93,0,0,0-.64-2.39,2.17,2.17,0,0,0-1.83-.84,2.42,2.42,0,0,0-1.79.67,2.33,2.33,0,0,0-.68,1.77,2.48,2.48,0,0,0,.62,1.77,2.18,2.18,0,0,0,1.65.67,2.1,2.1,0,0,0,1.7-.84,5.25,5.25,0,0,1-.42,1.81,1.39,1.39,0,0,1-1.28.92,1.32,1.32,0,0,1-.9-.3,1.36,1.36,0,0,1-.39-.88H9a2,2,0,0,0,.62,1.44,2.25,2.25,0,0,0,1.56.53A2.19,2.19,0,0,0,13.1,17.49Zm-.78-2.83a1.34,1.34,0,0,1-1,.45,1.33,1.33,0,0,1-1-.45,1.68,1.68,0,0,1-.41-1.16,1.66,1.66,0,0,1,.41-1.16,1.33,1.33,0,0,1,1-.45,1.34,1.34,0,0,1,1,.45,1.65,1.65,0,0,1,.4,1.16A1.67,1.67,0,0,1,12.32,14.66Zm4.82,4a2.09,2.09,0,0,0,1.87-1,5,5,0,0,0,.66-2.79A5,5,0,0,0,19,12a2.26,2.26,0,0,0-3.73,0,5,5,0,0,0-.65,2.8,5,5,0,0,0,.65,2.79A2.11,2.11,0,0,0,17.14,18.62Zm0-.83A1.24,1.24,0,0,1,16,17.05a4.88,4.88,0,0,1-.39-2.21A5,5,0,0,1,16,12.62a1.23,1.23,0,0,1,1.15-.73,1.25,1.25,0,0,1,1.17.73,4.84,4.84,0,0,1,.38,2.22,4.77,4.77,0,0,1-.38,2.21A1.26,1.26,0,0,1,17.14,17.79Z" transform="translate(-0.5 -1.76)"/></g></g></g></g></svg>