<svg xmlns="http://www.w3.org/2000/svg" xmlns:xlink="http://www.w3.org/1999/xlink" viewBox="0 0 15 13.5"><defs><style>.cls-1{fill:none;}.cls-2{clip-path:url(#clip-path);}.cls-3{fill:#7a9acc;}</style><clipPath id="clip-path" transform="translate(0 -0.75)"><rect class="cls-1" width="15" height="15"/></clipPath></defs><title>icon80</title><g id="图层_2" data-name="图层 2"><g id="图层_1-2" data-name="图层 1"><g class="cls-2"><path class="cls-3" d="M13.13,14.25H1.88A1.88,1.88,0,0,1,0,12.37V4.12A1.88,1.88,0,0,1,1.88,2.25H4.1a.37.37,0,0,0,.31-.17L4.47,2,5.53,1A1.13,1.13,0,0,1,6.29.75H8.71A1.13,1.13,0,0,1,9.47,1l1.12,1a.37.37,0,0,0,.31.17h2.23A1.87,1.87,0,0,1,15,4.12v8.25A1.88,1.88,0,0,1,13.13,14.25ZM1.88,3A1.12,1.12,0,0,0,.75,4.12v8.25A1.12,1.12,0,0,0,1.88,13.5H13.13a1.12,1.12,0,0,0,1.12-1.13V4.12A1.12,1.12,0,0,0,13.13,3H10.9A1.14,1.14,0,0,1,10,2.54L9,1.6a.39.39,0,0,0-.25-.1H6.29A.39.39,0,0,0,6,1.6L5,2.54A1.12,1.12,0,0,1,4.1,3ZM7.5,11.62a3.38,3.38,0,1,1,3.38-3.37A3.37,3.37,0,0,1,7.5,11.62Zm0-6a2.63,2.63,0,1,0,2.63,2.62A2.62,2.62,0,0,0,7.5,5.63ZM3.93,4.52a.38.38,0,0,0-.38-.38H2.05a.38.38,0,0,0,0,.75h1.5A.38.38,0,0,0,3.93,4.52Z" transform="translate(0 -0.75)"/></g></g></g></svg>