<svg xmlns="http://www.w3.org/2000/svg" xmlns:xlink="http://www.w3.org/1999/xlink" viewBox="0 0 15 15"><defs><style>.cls-1{fill:none;}.cls-2{clip-path:url(#clip-path);}.cls-3{fill:#7a9acc;}</style><clipPath id="clip-path" transform="translate(-0.5 -0.5)"><rect class="cls-1" width="16" height="16"/></clipPath></defs><title>icon78</title><g id="图层_2" data-name="图层 2"><g id="图层_1-2" data-name="图层 1"><g class="cls-2"><path class="cls-3" d="M13.24,15.5H2.76A2.26,2.26,0,0,1,.5,13.24V2.76A2.26,2.26,0,0,1,2.76.5H13.24A2.26,2.26,0,0,1,15.5,2.76V13.24A2.26,2.26,0,0,1,13.24,15.5ZM2.76,1.21A1.56,1.56,0,0,0,1.21,2.76V13.24a1.56,1.56,0,0,0,1.55,1.55H13.24a1.56,1.56,0,0,0,1.55-1.55V2.76a1.56,1.56,0,0,0-1.55-1.55Zm1.67,6A.83.83,0,1,0,5.26,8,.83.83,0,0,0,4.43,7.17ZM8,7.17A.83.83,0,1,0,8.83,8,.83.83,0,0,0,8,7.17Zm3.57,0A.83.83,0,1,0,12.4,8,.83.83,0,0,0,11.57,7.17Z" transform="translate(-0.5 -0.5)"/></g></g></g></svg>